<mxfile host="app.diagrams.net" modified="2023-11-20T09:55:42.276Z" agent="Mozilla/5.0 (Windows NT 10.0; Win64; x64) AppleWebKit/537.36 (KHTML, like Gecko) Chrome/118.0.0.0 Safari/537.36 Edg/118.0.2088.57" etag="Omj_kerNHb_iXDK6KbdQ" version="22.1.3" type="github">
  <diagram name="Page-1" id="JBoJBGTBUDuK5syIXnC-">
    <mxGraphModel dx="1238" dy="659" grid="1" gridSize="10" guides="1" tooltips="1" connect="1" arrows="1" fold="1" page="1" pageScale="1" pageWidth="827" pageHeight="1169" math="0" shadow="0">
      <root>
        <mxCell id="0" />
        <mxCell id="1" parent="0" />
        <mxCell id="XSTbYWrp9GXhk_1nZWkE-1" value="Keycloak" style="rounded=1;whiteSpace=wrap;html=1;" vertex="1" parent="1">
          <mxGeometry x="440" y="80" width="120" height="60" as="geometry" />
        </mxCell>
        <mxCell id="XSTbYWrp9GXhk_1nZWkE-4" value="Users" style="shape=document;whiteSpace=wrap;html=1;boundedLbl=1;" vertex="1" parent="1">
          <mxGeometry x="560" y="240" width="120" height="80" as="geometry" />
        </mxCell>
        <mxCell id="XSTbYWrp9GXhk_1nZWkE-5" value="" style="endArrow=classic;startArrow=classic;html=1;rounded=0;exitX=0.5;exitY=1;exitDx=0;exitDy=0;entryX=0.5;entryY=0;entryDx=0;entryDy=0;" edge="1" parent="1" source="XSTbYWrp9GXhk_1nZWkE-1" target="XSTbYWrp9GXhk_1nZWkE-4">
          <mxGeometry width="50" height="50" relative="1" as="geometry">
            <mxPoint x="380" y="370" as="sourcePoint" />
            <mxPoint x="430" y="320" as="targetPoint" />
          </mxGeometry>
        </mxCell>
        <mxCell id="XSTbYWrp9GXhk_1nZWkE-6" value="User-Api" style="rounded=1;whiteSpace=wrap;html=1;" vertex="1" parent="1">
          <mxGeometry x="320" y="240" width="120" height="60" as="geometry" />
        </mxCell>
        <mxCell id="XSTbYWrp9GXhk_1nZWkE-7" value="" style="endArrow=classic;startArrow=classic;html=1;rounded=0;entryX=0.439;entryY=1.042;entryDx=0;entryDy=0;entryPerimeter=0;exitX=0.5;exitY=0;exitDx=0;exitDy=0;" edge="1" parent="1" source="XSTbYWrp9GXhk_1nZWkE-6" target="XSTbYWrp9GXhk_1nZWkE-1">
          <mxGeometry width="50" height="50" relative="1" as="geometry">
            <mxPoint x="380" y="370" as="sourcePoint" />
            <mxPoint x="430" y="320" as="targetPoint" />
          </mxGeometry>
        </mxCell>
        <mxCell id="XSTbYWrp9GXhk_1nZWkE-8" value="Users in JSOn" style="shape=document;whiteSpace=wrap;html=1;boundedLbl=1;" vertex="1" parent="1">
          <mxGeometry x="120" y="120" width="120" height="80" as="geometry" />
        </mxCell>
        <mxCell id="XSTbYWrp9GXhk_1nZWkE-9" value="" style="endArrow=classic;html=1;rounded=0;exitX=1;exitY=0.5;exitDx=0;exitDy=0;entryX=0;entryY=0.25;entryDx=0;entryDy=0;" edge="1" parent="1" source="XSTbYWrp9GXhk_1nZWkE-8" target="XSTbYWrp9GXhk_1nZWkE-6">
          <mxGeometry width="50" height="50" relative="1" as="geometry">
            <mxPoint x="380" y="370" as="sourcePoint" />
            <mxPoint x="430" y="320" as="targetPoint" />
          </mxGeometry>
        </mxCell>
        <mxCell id="XSTbYWrp9GXhk_1nZWkE-10" value="import with HTTP Post" style="edgeLabel;html=1;align=center;verticalAlign=middle;resizable=0;points=[];" vertex="1" connectable="0" parent="XSTbYWrp9GXhk_1nZWkE-9">
          <mxGeometry x="-0.2497" y="2" relative="1" as="geometry">
            <mxPoint y="9" as="offset" />
          </mxGeometry>
        </mxCell>
        <mxCell id="XSTbYWrp9GXhk_1nZWkE-11" value="" style="swimlane;startSize=0;opacity=20;fillStyle=auto;fillColor=#FFFFFF;swimlaneFillColor=#004C99;gradientColor=none;" vertex="1" parent="1">
          <mxGeometry x="310" y="60" width="390" height="310" as="geometry" />
        </mxCell>
      </root>
    </mxGraphModel>
  </diagram>
</mxfile>
